<svg width="12" height="12" viewBox="0 0 12 12" fill="none" xmlns="http://www.w3.org/2000/svg">
<g clip-path="url(#clip0_414_2)">
<path d="M11.0915 5.918L6.56333 1.39222L6.25981 1.0887C6.19066 1.02 6.09714 0.981445 5.99966 0.981445C5.90218 0.981445 5.80866 1.02 5.7395 1.0887L0.907861 5.918C0.836999 5.98858 0.780996 6.07265 0.743157 6.16524C0.705317 6.25782 0.686409 6.35705 0.687549 6.45706C0.692236 6.86956 1.0356 7.19886 1.4481 7.19886H1.94614V11.0157H10.0532V7.19886H10.5618C10.7622 7.19886 10.9508 7.12034 11.0926 6.97854C11.1624 6.90895 11.2178 6.82619 11.2554 6.73507C11.293 6.64395 11.3122 6.54627 11.3118 6.44769C11.3118 6.24847 11.2333 6.05979 11.0915 5.918ZM6.65591 10.1719H5.34341V7.78128H6.65591V10.1719ZM9.20942 6.35511V10.1719H7.40591V7.50003C7.40591 7.24104 7.19614 7.03128 6.93716 7.03128H5.06216C4.80317 7.03128 4.59341 7.24104 4.59341 7.50003V10.1719H2.78989V6.35511H1.66489L6.00083 2.02269L6.27153 2.29339L10.3356 6.35511H9.20942Z" fill="white"/>
</g>
<defs>
<clipPath id="clip0_414_2">
<rect width="12" height="12" fill="white"/>
</clipPath>
</defs>
</svg>
