<svg width="12" height="12" viewBox="0 0 12 12" fill="none" xmlns="http://www.w3.org/2000/svg">
<g clip-path="url(#clip0_414_4)">
<path d="M6.375 5.0625C6.375 4.80291 6.29802 4.54915 6.1538 4.33331C6.00958 4.11747 5.8046 3.94925 5.56477 3.84991C5.32494 3.75057 5.06104 3.72458 4.80644 3.77522C4.55184 3.82586 4.31798 3.95087 4.13442 4.13442C3.95087 4.31798 3.82586 4.55184 3.77522 4.80644C3.72458 5.06104 3.75057 5.32494 3.84991 5.56477C3.94925 5.8046 4.11747 6.00958 4.33331 6.1538C4.54915 6.29802 4.80291 6.375 5.0625 6.375C5.4106 6.375 5.74444 6.23672 5.99058 5.99058C6.23672 5.74444 6.375 5.4106 6.375 5.0625ZM5.0625 5.625C4.95125 5.625 4.84249 5.59201 4.74999 5.5302C4.65749 5.46839 4.58539 5.38054 4.54282 5.27776C4.50024 5.17498 4.4891 5.06188 4.51081 4.95276C4.53251 4.84365 4.58609 4.74342 4.66475 4.66475C4.74342 4.58609 4.84365 4.53251 4.95276 4.51081C5.06188 4.4891 5.17498 4.50024 5.27776 4.54282C5.38054 4.58539 5.46839 4.65749 5.5302 4.74999C5.59201 4.84249 5.625 4.95125 5.625 5.0625C5.625 5.21168 5.56574 5.35476 5.46025 5.46025C5.35476 5.56574 5.21168 5.625 5.0625 5.625ZM8.25 5.25C8.39834 5.25 8.54334 5.29399 8.66668 5.3764C8.79001 5.45881 8.88614 5.57594 8.94291 5.71299C8.99968 5.85003 9.01453 6.00083 8.98559 6.14632C8.95665 6.2918 8.88522 6.42544 8.78033 6.53033C8.67544 6.63522 8.5418 6.70665 8.39632 6.73559C8.25083 6.76453 8.10003 6.74968 7.96299 6.69291C7.82594 6.63614 7.70881 6.54001 7.6264 6.41668C7.54399 6.29334 7.5 6.14834 7.5 6C7.5 5.80109 7.57902 5.61032 7.71967 5.46967C7.86032 5.32902 8.05109 5.25 8.25 5.25ZM6.75 8.25C6.75 8.39834 6.70601 8.54334 6.6236 8.66668C6.54119 8.79001 6.42406 8.88614 6.28701 8.94291C6.14997 8.99968 5.99917 9.01453 5.85368 8.98559C5.7082 8.95665 5.57456 8.88522 5.46967 8.78033C5.36478 8.67544 5.29335 8.5418 5.26441 8.39632C5.23547 8.25083 5.25032 8.10003 5.30709 7.96299C5.36386 7.82594 5.45999 7.70881 5.58332 7.6264C5.70666 7.54399 5.85166 7.5 6 7.5C6.19891 7.5 6.38968 7.57902 6.53033 7.71967C6.67098 7.86032 6.75 8.05109 6.75 8.25ZM11.25 5.625H10.4841C10.4069 4.69312 10.0399 3.80879 9.43453 3.09609L10.0153 2.51531C10.0857 2.44495 10.1252 2.34951 10.1252 2.25C10.1252 2.15049 10.0857 2.05505 10.0153 1.98469C9.94495 1.91432 9.84951 1.87479 9.75 1.87479C9.65049 1.87479 9.55505 1.91432 9.48469 1.98469L8.90625 2.56547C8.19292 1.95969 7.3077 1.59265 6.375 1.51594V0.75C6.375 0.650544 6.33549 0.555161 6.26517 0.484835C6.19484 0.414509 6.09946 0.375 6 0.375C5.90054 0.375 5.80516 0.414509 5.73484 0.484835C5.66451 0.555161 5.625 0.650544 5.625 0.75V1.51594C4.69312 1.59313 3.80879 1.96014 3.09609 2.56547L2.51531 1.98469C2.44495 1.91432 2.34951 1.87479 2.25 1.87479C2.15049 1.87479 2.05505 1.91432 1.98469 1.98469C1.91432 2.05505 1.87479 2.15049 1.87479 2.25C1.87479 2.34951 1.91432 2.44495 1.98469 2.51531L2.56547 3.09609C1.95969 3.80943 1.59265 4.69465 1.51594 5.62734H0.75C0.650544 5.62734 0.555161 5.66685 0.484835 5.73718C0.414509 5.8075 0.375 5.90289 0.375 6.00234C0.375 6.1018 0.414509 6.19718 0.484835 6.26751C0.555161 6.33783 0.650544 6.37734 0.75 6.37734H1.51594C1.59313 7.30922 1.96014 8.19355 2.56547 8.90625L1.98469 9.48469C1.91432 9.55505 1.87479 9.65049 1.87479 9.75C1.87479 9.84951 1.91432 9.94495 1.98469 10.0153C2.05505 10.0857 2.15049 10.1252 2.25 10.1252C2.34951 10.1252 2.44495 10.0857 2.51531 10.0153L3.09609 9.43453C3.80943 10.0403 4.69465 10.4073 5.62734 10.4841V11.25C5.62734 11.3495 5.66685 11.4448 5.73718 11.5152C5.8075 11.5855 5.90289 11.625 6.00234 11.625C6.1018 11.625 6.19718 11.5855 6.26751 11.5152C6.33783 11.4448 6.37734 11.3495 6.37734 11.25V10.4841C7.30922 10.4069 8.19355 10.0399 8.90625 9.43453L9.48703 10.0153C9.5574 10.0857 9.65283 10.1252 9.75234 10.1252C9.85186 10.1252 9.94729 10.0857 10.0177 10.0153C10.088 9.94495 10.1276 9.84951 10.1276 9.75C10.1276 9.65049 10.088 9.55505 10.0177 9.48469L9.43453 8.90625C10.0403 8.19292 10.4073 7.3077 10.4841 6.375H11.25C11.3495 6.375 11.4448 6.33549 11.5152 6.26517C11.5855 6.19484 11.625 6.09946 11.625 6C11.625 5.90054 11.5855 5.80516 11.5152 5.73484C11.4448 5.66451 11.3495 5.625 11.25 5.625ZM6 9.75C5.25832 9.75 4.5333 9.53007 3.91661 9.11801C3.29993 8.70596 2.81928 8.12029 2.53545 7.43506C2.25162 6.74984 2.17736 5.99584 2.32206 5.26841C2.46675 4.54098 2.8239 3.8728 3.34835 3.34835C3.8728 2.8239 4.54098 2.46675 5.26841 2.32206C5.99584 2.17736 6.74984 2.25162 7.43506 2.53545C8.12029 2.81928 8.70596 3.29993 9.11801 3.91661C9.53007 4.5333 9.75 5.25832 9.75 6C9.74888 6.99422 9.35344 7.9474 8.65042 8.65042C7.9474 9.35344 6.99422 9.74888 6 9.75Z" fill="white"/>
</g>
<defs>
<clipPath id="clip0_414_4">
<rect width="12" height="12" fill="white"/>
</clipPath>
</defs>
</svg>
