<svg width="12" height="12" viewBox="0 0 12 12" fill="none" xmlns="http://www.w3.org/2000/svg">
<g clip-path="url(#clip0_414_6)">
<path d="M10.1245 6.28503V5.71128L10.8445 5.08128C10.9772 4.9643 11.0643 4.80417 11.0904 4.62918C11.1165 4.4542 11.0798 4.27563 10.987 4.12503L10.102 2.62503C10.0362 2.51113 9.94167 2.41652 9.8278 2.3507C9.71393 2.28488 9.58476 2.25017 9.45323 2.25003C9.37173 2.24941 9.29066 2.26207 9.21323 2.28753L8.30198 2.59503C8.14466 2.49048 7.98054 2.39653 7.81073 2.31378L7.61948 1.36878C7.58519 1.19613 7.49127 1.04105 7.35415 0.930669C7.21704 0.820292 7.04547 0.761658 6.86948 0.76503H5.11448C4.9385 0.761658 4.76693 0.820292 4.62981 0.930669C4.4927 1.04105 4.39878 1.19613 4.36448 1.36878L4.17323 2.31378C4.00221 2.39651 3.83685 2.49046 3.67823 2.59503L2.78573 2.27253C2.70747 2.25214 2.62642 2.24454 2.54573 2.25003C2.41421 2.25017 2.28504 2.28488 2.17117 2.3507C2.0573 2.41652 1.96275 2.51113 1.89698 2.62503L1.01198 4.12503C0.924454 4.2754 0.891929 4.45153 0.919978 4.62324C0.948027 4.79496 1.03491 4.95158 1.16573 5.06628L1.87448 5.71503V6.28878L1.16573 6.91878C1.03121 7.03428 0.941955 7.1937 0.913809 7.36876C0.885663 7.54382 0.920445 7.72318 1.01198 7.87503L1.89698 9.37503C1.96275 9.48893 2.0573 9.58354 2.17117 9.64936C2.28504 9.71518 2.41421 9.7499 2.54573 9.75003C2.62724 9.75066 2.7083 9.73799 2.78573 9.71253L3.69698 9.40503C3.85431 9.50958 4.01842 9.60354 4.18823 9.68628L4.37948 10.6313C4.41378 10.8039 4.5077 10.959 4.64481 11.0694C4.78193 11.1798 4.9535 11.2384 5.12948 11.235H6.89948C7.07547 11.2384 7.24704 11.1798 7.38415 11.0694C7.52127 10.959 7.61519 10.8039 7.64948 10.6313L7.84073 9.68628C8.01176 9.60356 8.17712 9.5096 8.33573 9.40503L9.24323 9.71253C9.32066 9.73799 9.40173 9.75066 9.48323 9.75003C9.61476 9.7499 9.74393 9.71518 9.8578 9.64936C9.97167 9.58354 10.0662 9.48893 10.132 9.37503L10.987 7.87503C11.0745 7.72466 11.107 7.54853 11.079 7.37682C11.0509 7.2051 10.9641 7.04848 10.8332 6.93378L10.1245 6.28503ZM9.45323 9.00003L8.16698 8.56503C7.86588 8.82007 7.52176 9.01944 7.15073 9.15378L6.88448 10.5H5.11448L4.84823 9.16878C4.48014 9.03062 4.13788 8.8316 3.83573 8.58003L2.54573 9.00003L1.66073 7.50003L2.68073 6.60003C2.6114 6.21185 2.6114 5.81446 2.68073 5.42628L1.66073 4.50003L2.54573 3.00003L3.83198 3.43503C4.13309 3.17999 4.47721 2.98063 4.84823 2.84628L5.11448 1.50003H6.88448L7.15073 2.83128C7.51883 2.96944 7.86109 3.16846 8.16323 3.42003L9.45323 3.00003L10.3382 4.50003L9.31823 5.40003C9.38757 5.78821 9.38757 6.1856 9.31823 6.57378L10.3382 7.50003L9.45323 9.00003Z" fill="white"/>
<path d="M6 8.25C5.55499 8.25 5.11998 8.11804 4.74997 7.87081C4.37996 7.62357 4.09157 7.27217 3.92127 6.86104C3.75097 6.4499 3.70642 5.99751 3.79323 5.56105C3.88005 5.12459 4.09434 4.72368 4.40901 4.40901C4.72368 4.09434 5.12459 3.88005 5.56105 3.79323C5.99751 3.70642 6.4499 3.75097 6.86104 3.92127C7.27217 4.09157 7.62357 4.37996 7.87081 4.74997C8.11804 5.11998 8.25 5.55499 8.25 6C8.25301 6.29631 8.19687 6.59024 8.08486 6.86459C7.97285 7.13893 7.80723 7.38816 7.5977 7.5977C7.38816 7.80723 7.13893 7.97285 6.86459 8.08486C6.59024 8.19687 6.29631 8.25301 6 8.25ZM6 4.5C5.80176 4.49538 5.60463 4.53103 5.42056 4.60477C5.23648 4.67852 5.06928 4.78884 4.92906 4.92906C4.78884 5.06928 4.67852 5.23648 4.60477 5.42056C4.53103 5.60463 4.49538 5.80176 4.5 6C4.49538 6.19825 4.53103 6.39537 4.60477 6.57944C4.67852 6.76352 4.78884 6.93073 4.92906 7.07094C5.06928 7.21116 5.23648 7.32148 5.42056 7.39523C5.60463 7.46898 5.80176 7.50462 6 7.5C6.19825 7.50462 6.39537 7.46898 6.57944 7.39523C6.76352 7.32148 6.93073 7.21116 7.07094 7.07094C7.21116 6.93073 7.32148 6.76352 7.39523 6.57944C7.46898 6.39537 7.50462 6.19825 7.5 6C7.50462 5.80176 7.46898 5.60463 7.39523 5.42056C7.32148 5.23648 7.21116 5.06928 7.07094 4.92906C6.93073 4.78884 6.76352 4.67852 6.57944 4.60477C6.39537 4.53103 6.19825 4.49538 6 4.5Z" fill="white"/>
</g>
<defs>
<clipPath id="clip0_414_6">
<rect width="12" height="12" fill="white"/>
</clipPath>
</defs>
</svg>
