<svg width="48" height="48" viewBox="0 0 48 48" fill="none" xmlns="http://www.w3.org/2000/svg">
<path d="M24.0005 41.52C33.6765 41.52 41.5205 33.676 41.5205 24C41.5205 14.324 33.6765 6.47998 24.0005 6.47998C14.3244 6.47998 6.48047 14.324 6.48047 24C6.48047 33.676 14.3244 41.52 24.0005 41.52Z" fill="#E9F6FF"/>
<path d="M30.7818 24.3058C30.7818 24.3058 27.6431 20.9645 24.7804 19.8365C21.9172 18.7085 18.7684 21.0086 21.7631 24.0797C24.7578 27.1507 24.8222 27.5328 24.8222 27.5328C24.8222 27.5328 23.9332 32.0458 28.0972 35.1744" stroke="#231F20" stroke-width="0.48" stroke-miterlimit="10" stroke-linecap="round" stroke-linejoin="round"/>
<path d="M17.2326 22.0632C16.888 22.5634 16.6945 23.2877 16.7934 24.3288C17.0401 26.9252 19.1128 28.117 20.1889 28.6095C21.7811 29.3381 24.1859 28.8288 23.4678 25.9728" stroke="#231F20" stroke-width="0.48" stroke-miterlimit="10" stroke-linecap="round" stroke-linejoin="round"/>
<path d="M17.1405 25.6853C17.1405 25.6853 14.0397 26.5714 15.4245 29.8368C16.0369 31.2811 17.644 32.3141 19.4205 32.5522C21.5617 32.8392 23.0406 30.5112 21.3837 28.9047" stroke="#231F20" stroke-width="0.48" stroke-miterlimit="10" stroke-linecap="round" stroke-linejoin="round"/>
<path d="M40.932 33.204C40.932 33.204 38.0592 27.1315 32.293 20.3947" stroke="#231F20" stroke-width="0.48" stroke-miterlimit="10" stroke-linecap="round" stroke-linejoin="round"/>
<path d="M24.437 44.341C24.437 44.341 20.5217 35.2354 18.1836 32.3285" stroke="#231F20" stroke-width="0.48" stroke-miterlimit="10" stroke-linecap="round" stroke-linejoin="round"/>
<path d="M20.4959 21.6307L13.4778 22.3781C12.3254 22.5009 11.2919 21.6662 11.1695 20.5137L10.2969 12.3177" stroke="#231F20" stroke-width="0.48" stroke-miterlimit="10" stroke-linecap="round" stroke-linejoin="round"/>
<path d="M31.9655 3.63214C32.7004 3.5539 33.3594 4.08622 33.4376 4.8211L34.9208 18.7488C34.9991 19.4837 34.4668 20.1427 33.7319 20.2209L27.0215 20.9357" stroke="#231F20" stroke-width="0.48" stroke-miterlimit="10" stroke-linecap="round" stroke-linejoin="round"/>
<path d="M29.8573 7.83169C30.6243 7.75009 31.1797 7.06225 31.0981 6.29521L30.969 5.08417C30.8907 4.34929 31.2944 3.70417 31.8886 3.64081L10.5344 5.91457C9.45873 6.02929 8.67969 6.99361 8.79441 8.06929L9.09537 10.8974C9.18609 11.7485 9.94929 12.3653 10.8008 12.2746L15.0954 11.8171C15.5706 11.7667 15.9978 11.5061 16.2608 11.1072L17.1416 9.77089C17.4046 9.37201 17.8318 9.11185 18.307 9.06097L29.8573 7.83169Z" stroke="#231F20" stroke-width="0.48" stroke-miterlimit="10" stroke-linecap="round" stroke-linejoin="round"/>
<path d="M33.8876 20.2046C33.8771 20.2056 33.867 20.2037 33.8564 20.2046C33.8458 20.2061 33.8363 20.2099 33.8262 20.2113L33.8876 20.2046Z" stroke="#231F20" stroke-width="0.48" stroke-miterlimit="10" stroke-linecap="round" stroke-linejoin="round"/>
<path d="M31.166 6.39791L32.5086 19.0056C32.5854 19.729 33.1854 20.2574 33.8559 20.2042C34.5227 20.1149 34.9974 19.4722 34.9206 18.7488L33.578 6.14111L31.166 6.39791Z" stroke="#231F20" stroke-width="0.48" stroke-miterlimit="10" stroke-linecap="round" stroke-linejoin="round"/>
</svg>
