<svg width="22" height="22" viewBox="0 0 22 22" fill="none" xmlns="http://www.w3.org/2000/svg">
<path d="M10.9996 21.025C10.7329 21.025 10.4788 20.975 10.2371 20.875C9.99544 20.775 9.77461 20.6333 9.57461 20.45L1.54961 12.425C1.36628 12.225 1.22461 12.0041 1.12461 11.7625C1.02461 11.5208 0.974609 11.2666 0.974609 11C0.974609 10.7333 1.02461 10.475 1.12461 10.225C1.22461 9.97498 1.36628 9.75831 1.54961 9.57498L9.57461 1.54998C9.77461 1.34998 9.99544 1.20414 10.2371 1.11248C10.4788 1.02081 10.7329 0.974976 10.9996 0.974976C11.2663 0.974976 11.5246 1.02081 11.7746 1.11248C12.0246 1.20414 12.2413 1.34998 12.4246 1.54998L20.4496 9.57498C20.6496 9.75831 20.7954 9.97498 20.8871 10.225C20.9788 10.475 21.0246 10.7333 21.0246 11C21.0246 11.2666 20.9788 11.5208 20.8871 11.7625C20.7954 12.0041 20.6496 12.225 20.4496 12.425L12.4246 20.45C12.2413 20.6333 12.0246 20.775 11.7746 20.875C11.5246 20.975 11.2663 21.025 10.9996 21.025ZM10.9996 19.025L19.0246 11L10.9996 2.97498L2.97461 11L10.9996 19.025ZM9.99961 12H11.9996V5.99998H9.99961V12ZM10.9996 15C11.2829 15 11.5204 14.9041 11.7121 14.7125C11.9038 14.5208 11.9996 14.2833 11.9996 14C11.9996 13.7166 11.9038 13.4791 11.7121 13.2875C11.5204 13.0958 11.2829 13 10.9996 13C10.7163 13 10.4788 13.0958 10.2871 13.2875C10.0954 13.4791 9.99961 13.7166 9.99961 14C9.99961 14.2833 10.0954 14.5208 10.2871 14.7125C10.4788 14.9041 10.7163 15 10.9996 15Z" fill="#F6ED0C"/>
</svg>
